<?xml version="1.0" standalone="no"?>
<!DOCTYPE svg PUBLIC "-//W3C//DTD SVG 20010904//EN"
 "http://www.w3.org/TR/2001/REC-SVG-20010904/DTD/svg10.dtd">
<svg version="1.0" xmlns="http://www.w3.org/2000/svg"
 width="6319.000000pt" height="3726.000000pt" viewBox="0 0 6319.000000 3726.000000"
 preserveAspectRatio="xMidYMid meet">

<g transform="translate(0.000000,3726.000000) scale(0.100000,-0.100000)"
fill="#000000" stroke="none">
<path d="M43770 37240 c-1672 -79 -3194 -342 -4725 -815 -3456 -1069 -6547
-3144 -8856 -5945 -683 -829 -1312 -1741 -1829 -2655 -156 -277 -167 -292
-121 -177 l21 52 -2339 0 c-1345 0 -2341 -4 -2343 -9 -1 -5 -928 -2493 -2058
-5530 -1130 -3036 -2058 -5521 -2061 -5521 -3 0 -932 2489 -2064 5530 l-2058
5530 -7664 0 -7663 0 0 -1850 0 -1850 2710 0 2710 0 0 -6305 0 -6305 2170 0
2170 0 0 6305 0 6305 1183 0 1182 0 2516 -6303 2517 -6302 2290 -3 2290 -2
799 2002 c440 1102 1519 3804 2398 6005 879 2202 1600 4001 1603 3999 2 -2
-12 -64 -32 -138 -216 -819 -403 -1892 -490 -2808 -67 -697 -81 -1021 -81
-1820 0 -684 5 -844 41 -1345 274 -3858 1737 -7513 4203 -10505 972 -1179
2133 -2277 3356 -3172 2756 -2017 5935 -3219 9330 -3527 637 -58 1091 -75
1873 -68 642 5 868 15 1382 57 2962 245 5807 1194 8340 2783 1502 942 2918
2150 4096 3492 1947 2221 3328 4843 4054 7700 592 2332 723 4831 380 7240
-616 4315 -2727 8265 -5985 11200 -588 530 -1274 1068 -1952 1533 -1267 868
-2699 1602 -4143 2125 -1283 465 -2599 784 -3940 956 -443 57 -889 99 -1420
132 -217 13 -1552 20 -1790 9z m-1981 -9500 c671 -18 1177 -61 1721 -146 1275
-201 2307 -596 3095 -1184 1011 -755 1615 -1805 1824 -3165 55 -360 75 -644
75 -1075 0 -478 -26 -757 -110 -1146 -250 -1173 -927 -2134 -1999 -2840 -272
-178 -676 -395 -983 -525 -77 -33 -101 -48 -97 -59 4 -8 783 -1400 1732 -3093
949 -1693 1724 -3079 1722 -3081 -5 -5 -5442 -45 -5449 -41 -3 2 -819 1246
-1815 2764 l-1810 2761 -567 0 -568 0 -2 -2742 -3 -2743 -2172 -3 -2173 -2 0
8165 0 8165 3603 0 c2066 0 3761 -5 3976 -10z m13046 -8155 l0 -8160 -2172 -3
-2173 -2 0 8165 0 8165 2173 -2 2172 -3 0 -8160z"/>
<path d="M38560 22145 l0 -1896 1668 4 c1789 4 1769 3 2125 56 429 65 751 173
1007 338 382 248 585 599 661 1143 18 127 18 582 1 710 -34 238 -86 419 -173
595 -247 502 -760 792 -1584 895 -345 43 -356 43 -2057 47 l-1648 4 0 -1896z"/>
</g>
</svg>
